<?xml version="1.0" encoding="utf-8"?>
<svg viewBox="58.004 60.567 415.883 398.088" width="415.883" height="398.088" xmlns="http://www.w3.org/2000/svg">
  <path d="M 164.915 100.842 C 163.185 101.316 161.363 101.569 159.483 101.569 C 148.161 101.569 138.982 92.39 138.982 81.067 C 138.982 69.746 148.161 60.567 159.483 60.567 C 170.805 60.567 179.983 69.746 179.984 81.068 C 179.984 87.455 177.063 93.161 172.484 96.92 L 271.178 261.034 L 353.674 100.481 C 351.075 97.045 349.534 92.765 349.534 88.125 C 349.534 76.802 358.713 67.624 370.035 67.624 C 381.358 67.624 390.536 76.803 390.536 88.125 C 390.536 99.447 381.357 108.626 370.035 108.626 C 366.436 108.626 363.052 107.698 360.112 106.068 L 279.266 264.619 L 434.148 219.628 C 437.037 211.806 444.56 206.229 453.387 206.229 C 464.708 206.229 473.887 215.408 473.887 226.73 C 473.887 238.052 464.709 247.231 453.386 247.231 C 442.524 247.231 433.634 238.783 432.93 228.098 L 277.783 273.076 L 364.479 399.672 C 365.902 399.36 367.379 399.196 368.895 399.195 C 380.218 399.195 389.396 408.374 389.396 419.696 C 389.396 431.018 380.217 440.197 368.895 440.197 C 357.573 440.197 348.394 431.019 348.394 419.696 C 348.394 412.941 351.661 406.949 356.702 403.214 L 269.754 276.158 L 153.639 424.757 C 156.743 428.35 158.62 433.033 158.621 438.154 C 158.622 449.476 149.442 458.655 138.12 458.655 C 126.797 458.655 117.619 449.476 117.619 438.154 C 117.619 426.832 126.798 417.653 138.119 417.653 C 141.241 417.653 144.199 418.35 146.848 419.598 L 261.919 272.266 L 97.164 281.315 C 93.934 288.393 86.794 293.313 78.505 293.313 C 67.183 293.313 58.004 284.134 58.004 272.812 C 58.004 261.489 67.183 252.312 78.505 252.311 C 89.828 252.311 99.006 261.49 99.006 272.812 C 99.006 272.834 99.006 272.854 99.006 272.876 L 262.969 263.787 L 164.915 100.842 Z" style="stroke: rgb(0, 0, 0);" transform="matrix(0.9999999999999999, 0, 0, 0.9999999999999999, -7.105427357601002e-15, -7.105427357601002e-15)"/>
</svg>